<?xml version="1.0" encoding="UTF-8"?>
<svg width="101px" height="101px" viewBox="0 0 101 101" version="1.1" xmlns="http://www.w3.org/2000/svg" xmlns:xlink="http://www.w3.org/1999/xlink">
    <!-- Generator: Sketch 41 (35326) - http://www.bohemiancoding.com/sketch -->
    <title>deity</title>
    <desc>Created with Sketch.</desc>
    <defs></defs>
    <g id="Page-1" stroke="none" stroke-width="1" fill="none" fill-rule="evenodd">
        <g id="noun_574043_cc" fill="#000000">
            <path d="M94.7,47.4 L94.7,42.1 L89.4,42.1 L89.4,36.8 L84.1,36.8 L84.1,31.5 L79,31.5 L79,26.2 L73.7,26.2 L73.7,20.9 L68.4,20.9 L68.4,15.6 L63.1,15.6 L63.1,10.3 L57.8,10.3 L57.8,5.3 L52.5,5.3 L52.5,0 L47.2,0 L47.2,5.3 L41.9,5.3 L41.9,10.6 L36.6,10.6 L36.6,15.9 L31.3,15.9 L31.3,21.2 L26,21.2 L26,26.5 L21,26.5 L21,31.8 L15.7,31.8 L15.7,37.1 L10.4,37.1 L10.4,42.4 L5.3,42.4 L5.3,47.7 L0,47.7 L0,53 L5.3,53 L5.3,58.3 L10.6,58.3 L10.6,63.6 L15.9,63.6 L15.9,68.9 L21,68.9 L21,74.2 L26.3,74.2 L26.3,79.5 L31.6,79.5 L31.6,84.8 L36.9,84.8 L36.9,90.1 L42.2,90.1 L42.2,95.4 L47.5,95.4 L47.5,100.7 L52.8,100.7 L52.8,95.4 L58.1,95.4 L58.1,90.1 L63.4,90.1 L63.4,84.8 L68.7,84.8 L68.7,79.5 L74,79.5 L74,74.2 L79,74.2 L79,68.9 L84.3,68.9 L84.3,63.6 L89.6,63.6 L89.6,58.3 L94.9,58.3 L94.9,53 L100.2,53 L100.2,47.7 L94.7,47.7 L94.7,47.4 Z M89.5,52.6 L84.2,52.6 L84.2,57.9 L79,57.9 L79,63.2 L73.7,63.2 L73.7,68.5 L68.4,68.5 L68.4,73.8 L63.1,73.8 L63.1,79.1 L57.8,79.1 L57.8,84.4 L52.5,84.4 L52.5,89.7 L47.2,89.7 L47.2,84.4 L41.9,84.4 L41.9,79.1 L36.6,79.1 L36.6,73.8 L31.3,73.8 L31.3,68.5 L26,68.5 L26,63.2 L21,63.2 L21,57.9 L15.7,57.9 L15.7,52.6 L10.4,52.6 L10.4,47.3 L15.7,47.3 L15.7,42 L21,42 L21,36.7 L26.3,36.7 L26.3,31.4 L31.6,31.4 L31.6,26.1 L36.9,26.1 L36.9,20.8 L42.2,20.8 L42.2,15.5 L47.5,15.5 L47.5,10.2 L52.8,10.2 L52.8,15.5 L58.1,15.5 L58.1,20.8 L63.4,20.8 L63.4,26.1 L68.7,26.1 L68.7,31.4 L74,31.4 L74,36.7 L79,36.7 L79,42 L84.3,42 L84.3,47.3 L89.6,47.3 L89.6,52.6 L89.5,52.6 Z M73.7,42.1 L68.4,42.1 L68.4,36.8 L63.1,36.8 L63.1,31.5 L57.8,31.5 L57.8,26.2 L52.5,26.2 L52.5,20.9 L47.2,20.9 L47.2,26.2 L41.9,26.2 L41.9,31.5 L36.6,31.5 L36.6,36.8 L31.3,36.8 L31.3,42.1 L26,42.1 L26,47.4 L21,47.4 L21,52.7 L26.3,52.7 L26.3,58 L31.6,58 L31.6,63.3 L36.9,63.3 L36.9,68.6 L42.2,68.6 L42.2,73.9 L47.5,73.9 L47.5,79.2 L52.8,79.2 L52.8,73.9 L58.1,73.9 L58.1,68.6 L63.4,68.6 L63.4,63.3 L68.7,63.3 L68.7,58 L74,58 L74,52.7 L79,52.7 L79,47.4 L73.7,47.4 L73.7,42.1 Z M68.4,52.6 L63.1,52.6 L63.1,57.9 L57.8,57.9 L57.8,63.2 L52.5,63.2 L52.5,68.5 L47.2,68.5 L47.2,63.2 L41.9,63.2 L41.9,57.9 L36.6,57.9 L36.6,52.6 L31.3,52.6 L31.3,47.3 L36.6,47.3 L36.6,42 L41.9,42 L41.9,36.7 L47.2,36.7 L47.2,31.4 L52.5,31.4 L52.5,36.7 L57.8,36.7 L57.8,42 L63.1,42 L63.1,47.3 L68.4,47.3 L68.4,52.6 Z M52.6,47.4 L57.9,47.4 L57.9,52.7 L52.6,52.7 L52.6,58 L47.3,58 L47.3,52.7 L42,52.7 L42,47.4 L47.3,47.4 L47.3,42.1 L52.6,42.1 L52.6,47.4 Z" id="deity"></path>
        </g>
    </g>
</svg>