<svg xmlns="http://www.w3.org/2000/svg" xmlns:xlink="http://www.w3.org/1999/xlink" version="1.1" x="0px" y="0px" viewBox="0 0 100 100" enable-background="new 0 0 100 100" xml:space="preserve"><rect x="75.962" y="20.13" width="6.923" height="6.908"/><rect x="82.885" y="16.639" width="3.461" height="3.477"/><rect x="17.115" y="20.115" width="6.9" height="6.886"/><rect x="17.108" y="78.962" width="6.937" height="6.92"/><circle cx="67.308" cy="70.308" r="1.73"/><circle cx="32.692" cy="70.308" r="1.731"/><circle cx="32.692" cy="35.692" r="1.731"/><circle cx="67.308" cy="35.692" r="1.73"/><rect x="75.98" y="78.988" width="6.886" height="6.871"/><path d="M58.654,44.346V27.039H41.382v17.308H24.057v17.308h17.325v17.308h17.272V61.654h17.308V44.346H58.654z M70.77,54.73H51.73  V73.77h-3.461V54.73H29.231V51.27h19.038V32.231h3.461V51.27H70.77V54.73z"/><polygon points="50.071,14.923 53.343,14.923 51.708,17.519 50.071,20.115 48.435,17.519 46.8,14.923 "/><polygon points="50.071,8 52.253,8 51.163,9.731 50.071,11.461 48.981,9.731 47.891,8 "/><polygon points="50.07,91.077 46.799,91.077 48.433,88.48 50.07,85.885 51.706,88.48 53.342,91.077 "/><polygon points="50.07,98 47.889,98 48.979,96.27 50.07,94.538 51.16,96.27 52.251,98 "/><polygon points="88.077,52.62 88.077,55.891 85.48,54.258 82.885,52.62 85.48,50.983 88.077,49.349 "/><polygon points="95,52.62 95,54.8 93.27,53.71 91.538,52.62 93.27,51.529 95,50.439 "/><polygon points="11.923,52.62 11.923,49.349 14.52,50.982 17.115,52.62 14.52,54.256 11.923,55.891 "/><polygon points="5,52.62 5,50.439 6.731,51.529 8.461,52.62 6.731,53.71 5,54.8 "/><rect x="82.885" y="85.876" width="3.461" height="3.477"/><rect x="13.654" y="85.876" width="3.461" height="3.477"/><rect x="13.654" y="16.646" width="3.461" height="3.477"/></svg>
